<?xml version="1.0" encoding="UTF-8" standalone="no"?>
<svg
   version="1.0"
   width="70"
   height="50"
   viewBox="0 0 980.99669 700.71192"
   preserveAspectRatio="xMidYMid"
   id="svg16"
   sodipodi:docname="button.svg"
   inkscape:version="1.2.2 (732a01da63, 2022-12-09)"
   xmlns:inkscape="http://www.inkscape.org/namespaces/inkscape"
   xmlns:sodipodi="http://sodipodi.sourceforge.net/DTD/sodipodi-0.dtd"
   xmlns="http://www.w3.org/2000/svg"
   xmlns:svg="http://www.w3.org/2000/svg">
  <defs
     id="defs20" />
  <sodipodi:namedview
     id="namedview18"
     pagecolor="#ffffff"
     bordercolor="#000000"
     borderopacity="0.25"
     inkscape:showpageshadow="2"
     inkscape:pageopacity="0.0"
     inkscape:pagecheckerboard="0"
     inkscape:deskcolor="#d1d1d1"
     showgrid="true"
     showguides="true"
     inkscape:zoom="5.9184838"
     inkscape:cx="72.991668"
     inkscape:cy="36.326872"
     inkscape:window-width="1920"
     inkscape:window-height="1017"
     inkscape:window-x="-8"
     inkscape:window-y="-8"
     inkscape:window-maximized="1"
     inkscape:current-layer="svg16" />
  <path
     d="M 213.28652,0.51428884 135.58976,1.1821095 131.68489,4.409909 C 126.67866,8.6394386 9.4326548,138.97576 5.7280448,144.42963 c -2.8034902,4.11822 -2.8034902,4.45213 -3.7046202,26.71282 -1.00124,27.15804 -1.00124,313.87567 0,352.72057 l 0.70088,27.38064 3.9048602,5.45387 c 7.0087302,9.6834 123.0532352,138.12756 126.6577252,140.13102 3.20399,1.89216 8.21022,2.11477 52.56546,2.89389 61.57669,1.00173 504.62844,1.11303 594.84078,0 l 67.2838,-0.77912 4.80598,-4.34084 c 6.50811,-5.78778 121.45125,-133.45281 125.05574,-138.79538 2.70337,-4.11822 2.70337,-4.56344 3.60449,-26.71282 1.10137,-29.3841 1.10137,-328.56772 0,-357.95183 -0.90112,-22.26069 -0.90112,-22.5946 -3.70462,-26.71282 C 974.23416,139.08706 859.29102,11.422024 852.88304,5.6342468 L 848.07705,1.4047163 757.76458,0.51428884 c -100.72544,-1.00173089 -424.72893,-0.89042749 -544.47806,0 z M 891.93167,101.02129 l 56.3702,62.66383 v 186.43325 186.43324 l -56.27008,62.55253 -56.3702,62.66383 H 491.73328 147.80497 L 91.534907,599.21544 35.164705,536.55161 V 350.11837 163.68512 L 91.434777,101.13259 147.80497,38.468758 h 343.92831 343.92831 z"
     id="path12"
     style="fill:#000000;stroke:none;stroke-width:0.105566" />
</svg>
